<svg xmlns="http://www.w3.org/2000/svg" width="29.119" height="29.119" viewBox="0 0 29.119 29.119">
  <g id="Icon_feather-image" data-name="Icon feather-image" transform="translate(-3.5 -3.5)">
    <path id="Path_6" data-name="Path 6" d="M7.467,4.5H28.238a2.967,2.967,0,0,1,2.967,2.967V28.238a2.967,2.967,0,0,1-2.967,2.967H7.467A2.967,2.967,0,0,1,4.5,28.238V7.467A2.967,2.967,0,0,1,7.467,4.5Z" fill="none" stroke="#7a5e46" stroke-linecap="round" stroke-linejoin="round" stroke-width="2"/>
    <path id="Path_7" data-name="Path 7" d="M14.951,12.725A2.225,2.225,0,1,1,12.725,10.5,2.225,2.225,0,0,1,14.951,12.725Z" transform="translate(-0.066 -0.066)" fill="none" stroke="#7a5e46" stroke-linecap="round" stroke-linejoin="round" stroke-width="2"/>
    <path id="Path_8" data-name="Path 8" d="M31.238,22.418,23.82,15,7.5,31.32" transform="translate(-0.033 -0.115)" fill="none" stroke="#7a5e46" stroke-linecap="round" stroke-linejoin="round" stroke-width="2"/>
  </g>
</svg>
